<mxfile host="app.diagrams.net" modified="2024-02-07T08:53:25.063Z" agent="Mozilla/5.0 (Windows NT 10.0; Win64; x64) AppleWebKit/537.36 (KHTML, like Gecko) Chrome/121.0.0.0 Safari/537.36" etag="skzF6TUeDp89ZFHZHJGp" version="23.1.1" type="device">
  <diagram id="C5RBs43oDa-KdzZeNtuy" name="Page-1">
    <mxGraphModel dx="1434" dy="738" grid="1" gridSize="10" guides="1" tooltips="1" connect="1" arrows="1" fold="1" page="1" pageScale="1" pageWidth="827" pageHeight="1169" math="0" shadow="0">
      <root>
        <mxCell id="WIyWlLk6GJQsqaUBKTNV-0" />
        <mxCell id="WIyWlLk6GJQsqaUBKTNV-1" parent="WIyWlLk6GJQsqaUBKTNV-0" />
        <mxCell id="uh0hxw6GPBY7VzSOkwL4-3" style="edgeStyle=orthogonalEdgeStyle;rounded=0;orthogonalLoop=1;jettySize=auto;html=1;entryX=0.5;entryY=0;entryDx=0;entryDy=0;" edge="1" parent="WIyWlLk6GJQsqaUBKTNV-1" source="uh0hxw6GPBY7VzSOkwL4-0" target="uh0hxw6GPBY7VzSOkwL4-2">
          <mxGeometry relative="1" as="geometry" />
        </mxCell>
        <mxCell id="uh0hxw6GPBY7VzSOkwL4-0" value="시작" style="ellipse;whiteSpace=wrap;html=1;" vertex="1" parent="WIyWlLk6GJQsqaUBKTNV-1">
          <mxGeometry x="340" y="40" width="130" height="60" as="geometry" />
        </mxCell>
        <mxCell id="uh0hxw6GPBY7VzSOkwL4-7" style="edgeStyle=orthogonalEdgeStyle;rounded=0;orthogonalLoop=1;jettySize=auto;html=1;entryX=0.5;entryY=0;entryDx=0;entryDy=0;" edge="1" parent="WIyWlLk6GJQsqaUBKTNV-1" source="uh0hxw6GPBY7VzSOkwL4-2" target="uh0hxw6GPBY7VzSOkwL4-6">
          <mxGeometry relative="1" as="geometry" />
        </mxCell>
        <mxCell id="uh0hxw6GPBY7VzSOkwL4-2" value="star: ***********&lt;br&gt;bar&quot;&amp;nbsp; &amp;nbsp; | |&quot;" style="rounded=0;whiteSpace=wrap;html=1;" vertex="1" parent="WIyWlLk6GJQsqaUBKTNV-1">
          <mxGeometry x="330" y="160" width="150" height="50" as="geometry" />
        </mxCell>
        <mxCell id="uh0hxw6GPBY7VzSOkwL4-10" style="edgeStyle=orthogonalEdgeStyle;rounded=0;orthogonalLoop=1;jettySize=auto;html=1;entryX=0.5;entryY=0;entryDx=0;entryDy=0;" edge="1" parent="WIyWlLk6GJQsqaUBKTNV-1" source="uh0hxw6GPBY7VzSOkwL4-6" target="uh0hxw6GPBY7VzSOkwL4-9">
          <mxGeometry relative="1" as="geometry" />
        </mxCell>
        <mxCell id="uh0hxw6GPBY7VzSOkwL4-6" value="&quot;\(star)&quot;, &quot;\(&quot;bar&quot;)&amp;nbsp;&lt;br&gt;출력" style="rounded=0;whiteSpace=wrap;html=1;" vertex="1" parent="WIyWlLk6GJQsqaUBKTNV-1">
          <mxGeometry x="310" y="280" width="190" height="40" as="geometry" />
        </mxCell>
        <mxCell id="uh0hxw6GPBY7VzSOkwL4-12" value="yes" style="edgeStyle=orthogonalEdgeStyle;rounded=0;orthogonalLoop=1;jettySize=auto;html=1;entryX=0.5;entryY=0;entryDx=0;entryDy=0;" edge="1" parent="WIyWlLk6GJQsqaUBKTNV-1" source="uh0hxw6GPBY7VzSOkwL4-9" target="uh0hxw6GPBY7VzSOkwL4-11">
          <mxGeometry relative="1" as="geometry">
            <mxPoint x="405" y="550" as="targetPoint" />
          </mxGeometry>
        </mxCell>
        <mxCell id="uh0hxw6GPBY7VzSOkwL4-18" style="edgeStyle=orthogonalEdgeStyle;rounded=0;orthogonalLoop=1;jettySize=auto;html=1;entryX=1;entryY=0.5;entryDx=0;entryDy=0;" edge="1" parent="WIyWlLk6GJQsqaUBKTNV-1" source="uh0hxw6GPBY7VzSOkwL4-9" target="uh0hxw6GPBY7VzSOkwL4-16">
          <mxGeometry relative="1" as="geometry">
            <mxPoint x="530" y="670" as="targetPoint" />
            <Array as="points">
              <mxPoint x="681" y="405" />
              <mxPoint x="681" y="670" />
            </Array>
          </mxGeometry>
        </mxCell>
        <mxCell id="uh0hxw6GPBY7VzSOkwL4-9" value="star가 10보다 작은가?&lt;br&gt;bar가 4보다 작은가?" style="rhombus;whiteSpace=wrap;html=1;" vertex="1" parent="WIyWlLk6GJQsqaUBKTNV-1">
          <mxGeometry x="300" y="360" width="210" height="90" as="geometry" />
        </mxCell>
        <mxCell id="uh0hxw6GPBY7VzSOkwL4-13" style="edgeStyle=orthogonalEdgeStyle;rounded=0;orthogonalLoop=1;jettySize=auto;html=1;" edge="1" parent="WIyWlLk6GJQsqaUBKTNV-1" source="uh0hxw6GPBY7VzSOkwL4-11">
          <mxGeometry relative="1" as="geometry">
            <mxPoint x="405" y="240" as="targetPoint" />
            <Array as="points">
              <mxPoint x="231" y="540" />
              <mxPoint x="231" y="240" />
            </Array>
          </mxGeometry>
        </mxCell>
        <mxCell id="uh0hxw6GPBY7VzSOkwL4-11" value="star에 1을 더한다.&lt;br&gt;bar에 1을 더한다." style="rounded=0;whiteSpace=wrap;html=1;" vertex="1" parent="WIyWlLk6GJQsqaUBKTNV-1">
          <mxGeometry x="310" y="520" width="190" height="40" as="geometry" />
        </mxCell>
        <mxCell id="uh0hxw6GPBY7VzSOkwL4-16" value="끝" style="ellipse;whiteSpace=wrap;html=1;" vertex="1" parent="WIyWlLk6GJQsqaUBKTNV-1">
          <mxGeometry x="320" y="630" width="170" height="80" as="geometry" />
        </mxCell>
      </root>
    </mxGraphModel>
  </diagram>
</mxfile>
